<svg xmlns="http://www.w3.org/2000/svg" aria-hidden="true" style="position:absolute;width:0;height:0;overflow:hidden"><defs><symbol id="arrow-1" viewBox="0 0 43 32">
<path fill="none" stroke="#00486d" style="stroke: var(--color1, #00486d)" stroke-linejoin="round" stroke-linecap="round" stroke-miterlimit="4" stroke-width="2.1333" d="M27.735 3.566l12.068 12.068-12.068 12.068"></path>
<path fill="none" stroke="#00486d" style="stroke: var(--color1, #00486d)" stroke-linejoin="miter" stroke-linecap="round" stroke-miterlimit="4" stroke-width="2.1333" d="M39.071 15.633h-36.204"></path>
</symbol><symbol id="arrow-left" viewBox="0 0 12 32">
<path fill="none" stroke="#4d7f99" style="stroke: var(--color1, #4d7f99)" stroke-linejoin="round" stroke-linecap="round" stroke-miterlimit="4" stroke-width="1.28" d="M10.642 1.518l-9.838 14.482 9.838 14.482"></path>
</symbol>
<symbol id="icon-big-arrow" viewBox="0 0 7 32">
<path fill="none" stroke="#4d7f99" style="stroke: var(--color1, #4d7f99)" stroke-linejoin="round" stroke-linecap="round" stroke-miterlimit="4" stroke-width="1.2174" d="M0.522 0.696l5.913 15.304-5.913 15.304"></path>
</symbol>
<symbol id="facebook" viewBox="0 0 32 32">
<path d="M0 16c0-8.837 7.163-16 16-16s16 7.163 16 16-7.163 16-16 16-16-7.163-16-16zM17.668 25.408v-8.705h2.403l0.318-3h-2.721l0.004-1.501c0-0.783 0.074-1.202 1.198-1.202h1.502v-3h-2.402c-2.887 0-3.903 1.455-3.903 3.902v1.801h-1.8v3h1.8v8.705h3.602z"></path>
</symbol>
<symbol id="linkedin" viewBox="0 0 32 32">
<path d="M0 16c0-8.837 7.163-16 16-16s16 7.163 16 16-7.163 16-16 16-16-7.163-16-16zM11.307 13.252h-3.626v10.894h3.626v-10.894zM11.546 9.882c-0.024-1.068-0.787-1.882-2.028-1.882s-2.051 0.814-2.051 1.882c0 1.046 0.787 1.883 2.004 1.883h0.023c1.264 0 2.052-0.837 2.052-1.883zM24.384 17.9c0-3.346-1.79-4.904-4.175-4.904-1.925 0-2.787 1.057-3.268 1.8v-1.544h-3.627c0.048 1.022 0 10.895 0 10.895h3.627v-6.085c0-0.325 0.023-0.65 0.119-0.883 0.262-0.65 0.859-1.324 1.86-1.324 1.313 0 1.838 0.999 1.838 2.463v5.828h3.626v-6.246z"></path>
</symbol>
<symbol id="twitter" viewBox="0 0 32 32">
<path d="M0 16c0-8.837 7.163-16 16-16s16 7.163 16 16-7.163 16-16 16-16-7.163-16-16zM15.52 13.005l0.034 0.554-0.56-0.068c-2.036-0.26-3.816-1.141-5.326-2.621l-0.74-0.735-0.19 0.543c-0.402 1.208-0.145 2.485 0.695 3.344 0.447 0.474 0.346 0.542-0.426 0.26-0.268-0.090-0.503-0.158-0.526-0.124-0.078 0.079 0.19 1.107 0.403 1.514 0.291 0.564 0.884 1.118 1.533 1.446l0.549 0.26-0.65 0.010c-0.626 0-0.648 0.012-0.581 0.25 0.224 0.734 1.108 1.513 2.093 1.852l0.694 0.238-0.605 0.361c-0.862 0.504-1.892 0.811-2.993 0.836l-0.007 0c-0.503 0.012-0.917 0.057-0.917 0.090 0 0.114 1.365 0.747 2.16 0.995 2.384 0.734 5.215 0.418 7.342-0.836 1.51-0.893 3.021-2.666 3.727-4.384 0.38-0.915 0.76-2.587 0.76-3.39 0-0.52 0.034-0.587 0.66-1.209 0.37-0.361 0.717-0.757 0.784-0.87 0.112-0.214 0.101-0.214-0.47-0.022-0.951 0.339-1.085 0.294-0.615-0.215 0.347-0.361 0.76-1.017 0.76-1.209 0-0.034-0.167 0.023-0.357 0.125-0.202 0.113-0.65 0.282-0.985 0.384l-0.605 0.192-0.548-0.373c-0.302-0.203-0.727-0.43-0.951-0.497-0.571-0.158-1.444-0.136-1.959 0.045-1.399 0.508-2.283 1.82-2.182 3.254z"></path>
</symbol>
<symbol id="icon-arrow-text-area" viewBox="0 0 31 32">
<path fill="none" stroke="#ccdae2" style="stroke: var(--color1, #ccdae2)" stroke-linejoin="round" stroke-linecap="round" stroke-miterlimit="4" stroke-width="0.7805" d="M20.797 2.658l9.296 13.584-9.296 13.585"></path>
<path fill="none" stroke="#ccdae2" style="stroke: var(--color1, #ccdae2)" stroke-linejoin="miter" stroke-linecap="round" stroke-miterlimit="4" stroke-width="0.7805" d="M29.528 16.242h-27.885"></path>
</symbol>
<symbol id="icon-image-logo" viewBox="0 0 130 32">
<path d="M0.675 23.328v-0.706l0.642-0.193c0.407-0.129 0.685-0.332 0.835-0.61 0.15-0.3 0.225-0.686 0.225-1.157v-15.9c0-0.428-0.054-0.771-0.16-1.028-0.108-0.278-0.375-0.493-0.804-0.642l-0.738-0.29v-0.706h6.135l6.039 15.707 5.685-15.707h6.264v0.706l-0.514 0.161c-0.407 0.129-0.685 0.332-0.835 0.61-0.15 0.257-0.225 0.6-0.225 1.028-0.020 1.107-0.032 2.412-0.032 3.72 0 0.002 0 0.004 0 0.006v-0 8.77c0 1.242 0.010 2.473 0.032 3.694 0 0.45 0.054 0.792 0.16 1.028 0.108 0.235 0.365 0.428 0.772 0.578l0.642 0.225v0.706h-7.806v-0.706l0.707-0.225c0.407-0.15 0.653-0.343 0.739-0.578 0.107-0.257 0.16-0.6 0.16-1.028v-6.97l0.065-8.61-6.553 18.117h-1.8l-6.905-17.924 0.128 7.324v7.966c0 0.471 0.065 0.846 0.193 1.125 0.129 0.278 0.396 0.47 0.803 0.578l0.643 0.225v0.706h-4.497zM33.263 23.778c-1.456 0-2.773-0.31-3.95-0.931-1.179-0.643-2.11-1.564-2.795-2.763-0.664-1.22-0.996-2.698-0.996-4.433s0.375-3.212 1.124-4.433c0.726-1.191 1.739-2.142 2.946-2.774l0.041-0.020c1.264-0.664 2.645-0.996 4.144-0.996 1.22 0 2.26 0.203 3.116 0.61s1.51 0.932 1.96 1.574c0.45 0.621 0.674 1.285 0.674 1.992 0 0.6-0.182 1.060-0.546 1.381-0.343 0.321-0.793 0.482-1.35 0.482-0.599 0-1.091-0.214-1.477-0.643-0.364-0.428-0.578-0.974-0.642-1.638-0.010-0.163-0.016-0.354-0.016-0.546s0.006-0.383 0.017-0.572l-0.001 0.026c0.042-0.3 0.042-0.589 0-0.867-0.086-0.364-0.236-0.61-0.45-0.739-0.193-0.128-0.471-0.193-0.835-0.193-1.35 0-2.388 0.546-3.116 1.639-0.707 1.070-1.060 2.816-1.060 5.235 0 2.078 0.396 3.673 1.189 4.787s2.023 1.67 3.694 1.67c0.985 0 1.798-0.182 2.44-0.546 0.643-0.386 1.232-0.932 1.767-1.638l0.514 0.385c-0.535 1.285-1.36 2.27-2.473 2.955-1.092 0.664-2.398 0.996-3.919 0.996zM40.609 23.328v-0.674l0.674-0.193c0.429-0.128 0.707-0.321 0.835-0.578s0.193-0.6 0.193-1.028v-16.255c0-0.45-0.075-0.792-0.225-1.028-0.128-0.257-0.407-0.45-0.835-0.578l-0.642-0.225v-0.674h7.805v0.674l-0.674 0.225c-0.407 0.107-0.675 0.29-0.803 0.546s-0.193 0.61-0.193 1.060v16.286c0 0.428 0.075 0.771 0.225 1.028 0.15 0.236 0.428 0.418 0.835 0.546l0.61 0.193v0.674h-7.804zM52.301 23.328v-0.674l0.386-0.097c0.407-0.107 0.62-0.31 0.642-0.61 0.021-0.3-0.118-0.642-0.418-1.028l-6.135-8.512 7.838-7.966c0.321-0.322 0.492-0.61 0.514-0.868 0.043-0.278-0.15-0.492-0.578-0.642l-0.546-0.16v-0.675h5.075v0.674l-0.835 0.225c-0.493 0.15-0.89 0.332-1.189 0.546-0.3 0.193-0.642 0.493-1.028 0.9l-5.717 5.814 7.355 10.504c0.343 0.47 0.664 0.845 0.964 1.124 0.321 0.278 0.75 0.492 1.285 0.642l0.45 0.129v0.674h-8.064zM65.1 5.661c-0.707 0-1.307-0.225-1.8-0.674s-0.738-1.017-0.738-1.703c0-0.706 0.246-1.274 0.739-1.702 0.492-0.45 1.092-0.675 1.799-0.675s1.306 0.225 1.799 0.675c0.492 0.428 0.738 0.996 0.738 1.702 0 0.686-0.246 1.253-0.739 1.703-0.492 0.45-1.092 0.674-1.798 0.674zM61.406 23.328v-0.61l0.482-0.128c0.428-0.129 0.717-0.322 0.867-0.579s0.235-0.6 0.257-1.028v-7.741c0-0.578-0.011-1.167-0.032-1.767 0-0.428-0.086-0.76-0.257-0.995-0.15-0.257-0.44-0.429-0.868-0.514l-0.45-0.097v-0.578l5.622-1.863 0.385 0.353-0.096 4.562v8.672c0 0.429 0.075 0.771 0.225 1.028 0.171 0.257 0.46 0.45 0.867 0.579l0.353 0.096v0.61h-7.355zM70.188 23.328v-0.61l0.514-0.128c0.707-0.215 1.060-0.74 1.060-1.575v-9.475c-0.021-0.45-0.096-0.793-0.225-1.028-0.128-0.257-0.407-0.429-0.835-0.514l-0.514-0.129v-0.578l5.204-1.863 0.385 0.353 0.225 1.992c0.738-0.659 1.585-1.218 2.507-1.644l0.063-0.026c0.964-0.45 1.906-0.675 2.827-0.675 1.413 0 2.495 0.385 3.244 1.156 0.77 0.771 1.156 1.95 1.156 3.534v8.93c0 0.835 0.386 1.36 1.157 1.574l0.353 0.096v0.61h-7.388v-0.61l0.482-0.128c0.707-0.236 1.060-0.76 1.060-1.575v-9.54c0-0.75-0.16-1.295-0.482-1.638-0.321-0.342-0.856-0.514-1.606-0.514-1.050 0-2.141 0.46-3.276 1.381v10.344c0 0.835 0.374 1.36 1.124 1.574l0.321 0.096v0.61h-7.356zM88.698 23.328v-0.61l0.481-0.128c0.707-0.236 1.060-0.771 1.060-1.607v-2.183c0.022-0.75 0.032-1.488 0.032-2.216v-12.208c0-0.45-0.075-0.781-0.225-0.995-0.15-0.236-0.439-0.407-0.867-0.514l-0.482-0.129v-0.61l5.623-1.35 0.417 0.29-0.128 4.53v15.385c0.021 0.429 0.107 0.782 0.257 1.060 0.171 0.257 0.46 0.44 0.867 0.547l0.45 0.128v0.61h-7.485zM105.667 7.428c1.349 0 2.505 0.278 3.469 0.835 0.949 0.548 1.706 1.336 2.201 2.282l0.015 0.031c0.535 0.964 0.803 2.077 0.803 3.34 0 0.279-0.011 0.547-0.032 0.804-0.021 0.235-0.064 0.46-0.128 0.674h-9.669c0.021 2.206 0.428 3.79 1.22 4.754 0.814 0.964 1.992 1.446 3.534 1.446 1.071 0 1.938-0.172 2.602-0.514 0.664-0.364 1.274-0.867 1.831-1.51l0.514 0.482c-0.643 1.178-1.521 2.099-2.634 2.762-1.093 0.643-2.399 0.964-3.919 0.964-1.521 0-2.859-0.321-4.015-0.964s-2.067-1.563-2.73-2.762c-0.643-1.22-0.965-2.677-0.965-4.369 0-1.756 0.375-3.244 1.125-4.465 0.77-1.22 1.756-2.152 2.955-2.794 1.221-0.664 2.495-0.996 3.823-0.996zM105.506 8.36c-0.621 0-1.167 0.182-1.638 0.546-0.45 0.342-0.814 0.963-1.092 1.863-0.257 0.878-0.407 2.12-0.45 3.726h5.75c0.235-2.163 0.15-3.726-0.257-4.69s-1.178-1.445-2.313-1.445zM116.461 31.070c-0.857 0-1.531-0.204-2.024-0.61-0.492-0.408-0.739-0.943-0.739-1.607 0-0.6 0.204-1.081 0.611-1.445 0.38-0.319 0.874-0.513 1.413-0.514h0c0.536 0 0.975 0.096 1.317 0.289 0.343 0.193 0.643 0.471 0.9 0.835l0.192 0.257c0.493 0.6 0.953 0.589 1.382-0.032 0.293-0.391 0.561-0.834 0.783-1.303l0.020-0.047c0.278-0.535 0.578-1.241 0.899-2.12l-6.103-14.582c-0.15-0.407-0.321-0.718-0.514-0.932-0.193-0.236-0.482-0.428-0.867-0.578l-0.546-0.193v-0.578h7.934v0.578l-0.675 0.193c-0.471 0.15-0.728 0.385-0.771 0.706-0.021 0.3 0.054 0.696 0.225 1.189l3.276 8.544 3.148-8.608c0.172-0.471 0.236-0.868 0.193-1.189s-0.31-0.535-0.803-0.642l-0.707-0.193v-0.578h4.787v0.578l-0.707 0.225c-0.471 0.128-0.814 0.321-1.028 0.578-0.193 0.236-0.375 0.589-0.546 1.060l-5.14 13.812c-0.856 2.356-1.734 4.090-2.634 5.204-0.878 1.135-1.97 1.703-3.276 1.703z"></path>
</symbol>
<symbol id="icon-vector" viewBox="0 0 32 32"><path d="M14.909 0C7.788 0 1.779 4.847 0 11.415h1.401a14.098 14.098 0 0 1 2.366-4.577c1.146.645 2.473 1.186 3.942 1.6a24.812 24.812 0 0 0-.59 2.977h1.369c.136-.923.323-1.805.543-2.644 1.618.357 3.368.569 5.207.609v2.035h1.343V9.38a26.649 26.649 0 0 0 5.207-.609c.22.839.407 1.721.543 2.644H22.7a25.21 25.21 0 0 0-.59-2.977c1.469-.414 2.796-.955 3.942-1.6a14.033 14.033 0 0 1 2.363 4.577h1.403C28.04 4.847 22.03 0 14.909 0zm-.672 1.424v6.612a25.529 25.529 0 0 1-4.826-.561c1.104-3.302 2.854-5.616 4.826-6.051zm1.343 0c1.972.435 3.722 2.749 4.826 6.051a25.538 25.538 0 0 1-4.826.561V1.424zm-4.611.491c-1.183 1.249-2.172 3.048-2.885 5.23-1.283-.362-2.442-.821-3.433-1.353a14.13 14.13 0 0 1 6.319-3.877zm7.88 0a14.13 14.13 0 0 1 6.319 3.877c-.991.532-2.151.991-3.433 1.353-.713-2.182-1.702-3.982-2.885-5.23zM.136 12.758l1.705 5.372h1.563l1.422-4.016 1.422 4.016h1.529l1.736-5.372H8.06l-1.096 3.753-1.254-3.753H3.997l-1.306 3.691-1.078-3.691H.136zm10.083 0 1.708 5.372h1.566l1.416-4.016 1.424 4.016h1.529l1.736-5.372h-1.456l-1.094 3.753-1.254-3.753h-1.715l-1.306 3.691-1.075-3.691h-1.479zm10.051 0 1.71 5.372h1.571l1.424-4.016 1.43 4.016h1.534l1.742-5.372h-1.458l-1.102 3.753-1.256-3.753h-1.721l-1.311 3.691-1.083-3.691h-1.479zm4.711 6.043c-3.693 0-6.715 3.022-6.715 6.715s3.022 6.715 6.715 6.715 6.715-3.022 6.715-6.715-3.022-6.715-6.715-6.715zM0 19.473c1.778 6.568 7.788 11.415 14.909 11.415 1.277 0 2.515-.163 3.704-.454a8.149 8.149 0 0 1-.609-.921 7.863 7.863 0 0 1-.527-1.089c-.598.538-1.235.897-1.896 1.047v-6.623c.595.018 1.188.05 1.771.1.152-.449.336-.887.561-1.296a28.284 28.284 0 0 0-2.332-.144v-2.035h-1.343v2.035a27.111 27.111 0 0 0-5.204.611 23.929 23.929 0 0 1-.546-2.647H7.119a25.55 25.55 0 0 0 .59 2.98c-1.456.412-2.788.947-3.942 1.597a14.098 14.098 0 0 1-2.366-4.577H0zm24.981.671c2.953 0 5.372 2.418 5.372 5.372s-2.418 5.372-5.372 5.372c-2.953 0-5.372-2.418-5.372-5.372s2.418-5.372 5.372-5.372zm0 2.015c-1.477 0-2.014 1.209-2.014 2.014h1.343c0-.336.134-.671.671-.671.336 0 .671.134.671.671 0 .068-.202.336-.336.47-.404.47-1.007 1.209-1.007 2.216h1.343c0-.538.336-.939.671-1.343s.671-.805.671-1.343c0-1.477-1.209-2.014-2.014-2.014zm-10.744.692v6.612c-1.972-.435-3.725-2.749-4.826-6.056a25.978 25.978 0 0 1 4.826-.556zm-6.153.887c.713 2.185 1.702 3.987 2.885 5.233a14.095 14.095 0 0 1-6.321-3.877c1.015-.546 2.174-.999 3.436-1.356zm16.225 3.792v1.343h1.343V27.53h-1.343z"/></symbol><symbol id="icon-vector-1" viewBox="0 0 25 32"><path d="M1.92 0A1.93 1.93 0 0 0 0 1.92V32h24.32V1.92A1.93 1.93 0 0 0 22.4 0H1.92zm0 1.28H22.4c.355 0 .64.285.64.64v28.8h-2.56v-7.68h-7.04v7.68H1.28V1.92c0-.355.285-.64.64-.64zm1.92 2.56v5.12h7.04V3.84H3.84zm9.6 0v5.12h7.04V3.84h-7.04zM5.12 5.12H9.6v2.56H5.12V5.12zm9.6 0h4.48v2.56h-4.48V5.12zM3.84 10.24v5.12h7.04v-5.12H3.84zm9.6 0v5.12h7.04v-5.12h-7.04zm-8.32 1.28H9.6v2.56H5.12v-2.56zm9.6 0h4.48v2.56h-4.48v-2.56zM3.84 16.64v5.12h7.04v-5.12H3.84zm9.6 0v5.12h7.04v-5.12h-7.04zm-8.32 1.28H9.6v2.56H5.12v-2.56zm9.6 0h4.48v2.56h-4.48v-2.56zM3.84 23.04v5.12h7.04v-5.12H3.84zm1.28 1.28H9.6v2.56H5.12v-2.56zm9.6 0h4.48v6.4h-4.48v-6.4z"/></symbol><symbol id="icon-vector-2" viewBox="0 0 41 32"><path d="M12.288 0C7.224 0 3.733 1.723 3.733 1.723a.822.822 0 0 0-.456.734v2.458h-.819A2.47 2.47 0 0 0 0 7.373v21.299a2.47 2.47 0 0 0 2.458 2.458h16.203c.45.499 1.094.819 1.819.819s1.369-.32 1.819-.819h16.203a2.47 2.47 0 0 0 2.458-2.458V7.373a2.47 2.47 0 0 0-2.458-2.458h-.819V2.457a.824.824 0 0 0-.456-.734S33.736 0 28.672 0c-4.327 0-7.358 1.2-8.192 1.566C19.646 1.2 16.615 0 12.288 0zm0 1.638c4.2 0 6.796 1.126 7.373 1.389v23.661c-1.214-.485-3.553-1.293-7.373-1.293s-6.159.807-7.373 1.293V5.872a.798.798 0 0 0 0-.267V3.027c.577-.263 3.173-1.389 7.373-1.389zm16.384 0c4.2 0 6.796 1.126 7.373 1.389v2.57a.798.798 0 0 0 0 .267v20.824c-1.214-.485-3.553-1.293-7.373-1.293s-6.159.807-7.373 1.293V3.027c.577-.263 3.173-1.389 7.373-1.389zm-.819 3.277v1.709c-1.404.227-2.319 1.012-2.762 1.797-.525.929-.515 1.854-.515 1.854 0 1.164.585 2.092 1.326 2.696s1.62.975 2.438 1.338c.818.362 1.574.715 2.061 1.118s.728.769.728 1.469c0 0-.007.48-.294.965s-.755.981-2.163.981c-1.365 0-1.822-.562-2.134-1.186s-.323-1.272-.323-1.272h-1.638s-.011.99.496 2.005c.43.86 1.349 1.757 2.781 2.013v1.717h1.638v-1.706c1.394-.216 2.303-.96 2.752-1.717.532-.897.525-1.8.525-1.8 0-1.177-.578-2.117-1.32-2.731s-1.625-.99-2.445-1.354-1.58-.714-2.067-1.11c-.487-.397-.722-.747-.722-1.426 0 0 .009-.528.304-1.05s.757-1.034 2.154-1.034c1.365 0 1.822.562 2.134 1.186s.323 1.272.323 1.272h1.638s.011-.99-.496-2.005c-.43-.86-1.349-1.757-2.781-2.013V4.914h-1.638zM2.458 6.554h.819v21.299a.819.819 0 0 0 1.186.733s3.094-1.552 7.826-1.552 7.826 1.552 7.826 1.552a.867.867 0 0 0 .134.051l.019.006a.825.825 0 0 0 .238.029h.005a.758.758 0 0 0 .156-.021l.006-.002.008-.002a.87.87 0 0 0 .166-.062s3.094-1.552 7.826-1.552 7.826 1.552 7.826 1.552a.813.813 0 0 0 1.082-.334.819.819 0 0 0 .104-.399V6.553h.819c.463 0 .819.356.819.819v21.299a.806.806 0 0 1-.819.819H2.459a.806.806 0 0 1-.819-.819V7.372c0-.463.356-.819.819-.819z"/></symbol></defs></svg>