<svg xmlns="http://www.w3.org/2000/svg" aria-hidden="true" style="position:absolute;width:0;height:0;overflow:hidden"><defs><syhmbol id="arrow-1" viewBox="0 0 43 32">
<path fill="none" stroke="#00486d" style="stroke: var(--color1, #00486d)" stroke-linejoin="round" stroke-linecap="round" stroke-miterlimit="4" stroke-width="2.1333" d="M27.735 3.566l12.068 12.068-12.068 12.068"></path>
<path fill="none" stroke="#00486d" style="stroke: var(--color1, #00486d)" stroke-linejoin="miter" stroke-linecap="round" stroke-miterlimit="4" stroke-width="2.1333" d="M39.071 15.633h-36.204"></path>
</syhmbol><symbol id="arrow-left" viewBox="0 0 12 32">
<path fill="none" stroke="#4d7f99" style="stroke: var(--color1, #4d7f99)" stroke-linejoin="round" stroke-linecap="round" stroke-miterlimit="4" stroke-width="1.28" d="M10.642 1.518l-9.838 14.482 9.838 14.482"></path>
</symbol>
<symbol id="icon-big-arrow" viewBox="0 0 7 32">
<path fill="none" stroke="#4d7f99" style="stroke: var(--color1, #4d7f99)" stroke-linejoin="round" stroke-linecap="round" stroke-miterlimit="4" stroke-width="1.2174" d="M0.522 0.696l5.913 15.304-5.913 15.304"></path>
</symbol>
<symbol id="icon-Vector" viewBox="0 0 32 32"><path d="M14.909 0C7.788 0 1.779 4.847 0 11.415h1.401a14.098 14.098 0 0 1 2.366-4.577c1.146.645 2.473 1.186 3.942 1.6a24.812 24.812 0 0 0-.59 2.977h1.369c.136-.923.323-1.805.543-2.644 1.618.357 3.368.569 5.207.609v2.035h1.343V9.38a26.649 26.649 0 0 0 5.207-.609c.22.839.407 1.721.543 2.644H22.7a25.21 25.21 0 0 0-.59-2.977c1.469-.414 2.796-.955 3.942-1.6a14.033 14.033 0 0 1 2.363 4.577h1.403C28.04 4.847 22.03 0 14.909 0zm-.672 1.424v6.612a25.529 25.529 0 0 1-4.826-.561c1.104-3.302 2.854-5.616 4.826-6.051zm1.343 0c1.972.435 3.722 2.749 4.826 6.051a25.538 25.538 0 0 1-4.826.561V1.424zm-4.611.491c-1.183 1.249-2.172 3.048-2.885 5.23-1.283-.362-2.442-.821-3.433-1.353a14.13 14.13 0 0 1 6.319-3.877zm7.88 0a14.13 14.13 0 0 1 6.319 3.877c-.991.532-2.151.991-3.433 1.353-.713-2.182-1.702-3.982-2.885-5.23zM.136 12.758l1.705 5.372h1.563l1.422-4.016 1.422 4.016h1.529l1.736-5.372H8.06l-1.096 3.753-1.254-3.753H3.997l-1.306 3.691-1.078-3.691H.136zm10.083 0 1.708 5.372h1.566l1.416-4.016 1.424 4.016h1.529l1.736-5.372h-1.456l-1.094 3.753-1.254-3.753h-1.715l-1.306 3.691-1.075-3.691h-1.479zm10.051 0 1.71 5.372h1.571l1.424-4.016 1.43 4.016h1.534l1.742-5.372h-1.458l-1.102 3.753-1.256-3.753h-1.721l-1.311 3.691-1.083-3.691h-1.479zm4.711 6.043c-3.693 0-6.715 3.022-6.715 6.715s3.022 6.715 6.715 6.715 6.715-3.022 6.715-6.715-3.022-6.715-6.715-6.715zM0 19.473c1.778 6.568 7.788 11.415 14.909 11.415 1.277 0 2.515-.163 3.704-.454a8.149 8.149 0 0 1-.609-.921 7.863 7.863 0 0 1-.527-1.089c-.598.538-1.235.897-1.896 1.047v-6.623c.595.018 1.188.05 1.771.1.152-.449.336-.887.561-1.296a28.284 28.284 0 0 0-2.332-.144v-2.035h-1.343v2.035a27.111 27.111 0 0 0-5.204.611 23.929 23.929 0 0 1-.546-2.647H7.119a25.55 25.55 0 0 0 .59 2.98c-1.456.412-2.788.947-3.942 1.597a14.098 14.098 0 0 1-2.366-4.577H0zm24.981.671c2.953 0 5.372 2.418 5.372 5.372s-2.418 5.372-5.372 5.372c-2.953 0-5.372-2.418-5.372-5.372s2.418-5.372 5.372-5.372zm0 2.015c-1.477 0-2.014 1.209-2.014 2.014h1.343c0-.336.134-.671.671-.671.336 0 .671.134.671.671 0 .068-.202.336-.336.47-.404.47-1.007 1.209-1.007 2.216h1.343c0-.538.336-.939.671-1.343s.671-.805.671-1.343c0-1.477-1.209-2.014-2.014-2.014zm-10.744.692v6.612c-1.972-.435-3.725-2.749-4.826-6.056a25.978 25.978 0 0 1 4.826-.556zm-6.153.887c.713 2.185 1.702 3.987 2.885 5.233a14.095 14.095 0 0 1-6.321-3.877c1.015-.546 2.174-.999 3.436-1.356zm16.225 3.792v1.343h1.343V27.53h-1.343z"/></symbol><symbol id="icon-Vector-1" viewBox="0 0 25 32"><path d="M1.92 0A1.93 1.93 0 0 0 0 1.92V32h24.32V1.92A1.93 1.93 0 0 0 22.4 0H1.92zm0 1.28H22.4c.355 0 .64.285.64.64v28.8h-2.56v-7.68h-7.04v7.68H1.28V1.92c0-.355.285-.64.64-.64zm1.92 2.56v5.12h7.04V3.84H3.84zm9.6 0v5.12h7.04V3.84h-7.04zM5.12 5.12H9.6v2.56H5.12V5.12zm9.6 0h4.48v2.56h-4.48V5.12zM3.84 10.24v5.12h7.04v-5.12H3.84zm9.6 0v5.12h7.04v-5.12h-7.04zm-8.32 1.28H9.6v2.56H5.12v-2.56zm9.6 0h4.48v2.56h-4.48v-2.56zM3.84 16.64v5.12h7.04v-5.12H3.84zm9.6 0v5.12h7.04v-5.12h-7.04zm-8.32 1.28H9.6v2.56H5.12v-2.56zm9.6 0h4.48v2.56h-4.48v-2.56zM3.84 23.04v5.12h7.04v-5.12H3.84zm1.28 1.28H9.6v2.56H5.12v-2.56zm9.6 0h4.48v6.4h-4.48v-6.4z"/></symbol><symbol id="icon-Vector-2" viewBox="0 0 41 32"><path d="M12.288 0C7.224 0 3.733 1.723 3.733 1.723a.822.822 0 0 0-.456.734v2.458h-.819A2.47 2.47 0 0 0 0 7.373v21.299a2.47 2.47 0 0 0 2.458 2.458h16.203c.45.499 1.094.819 1.819.819s1.369-.32 1.819-.819h16.203a2.47 2.47 0 0 0 2.458-2.458V7.373a2.47 2.47 0 0 0-2.458-2.458h-.819V2.457a.824.824 0 0 0-.456-.734S33.736 0 28.672 0c-4.327 0-7.358 1.2-8.192 1.566C19.646 1.2 16.615 0 12.288 0zm0 1.638c4.2 0 6.796 1.126 7.373 1.389v23.661c-1.214-.485-3.553-1.293-7.373-1.293s-6.159.807-7.373 1.293V5.872a.798.798 0 0 0 0-.267V3.027c.577-.263 3.173-1.389 7.373-1.389zm16.384 0c4.2 0 6.796 1.126 7.373 1.389v2.57a.798.798 0 0 0 0 .267v20.824c-1.214-.485-3.553-1.293-7.373-1.293s-6.159.807-7.373 1.293V3.027c.577-.263 3.173-1.389 7.373-1.389zm-.819 3.277v1.709c-1.404.227-2.319 1.012-2.762 1.797-.525.929-.515 1.854-.515 1.854 0 1.164.585 2.092 1.326 2.696s1.62.975 2.438 1.338c.818.362 1.574.715 2.061 1.118s.728.769.728 1.469c0 0-.007.48-.294.965s-.755.981-2.163.981c-1.365 0-1.822-.562-2.134-1.186s-.323-1.272-.323-1.272h-1.638s-.011.99.496 2.005c.43.86 1.349 1.757 2.781 2.013v1.717h1.638v-1.706c1.394-.216 2.303-.96 2.752-1.717.532-.897.525-1.8.525-1.8 0-1.177-.578-2.117-1.32-2.731s-1.625-.99-2.445-1.354-1.58-.714-2.067-1.11c-.487-.397-.722-.747-.722-1.426 0 0 .009-.528.304-1.05s.757-1.034 2.154-1.034c1.365 0 1.822.562 2.134 1.186s.323 1.272.323 1.272h1.638s.011-.99-.496-2.005c-.43-.86-1.349-1.757-2.781-2.013V4.914h-1.638zM2.458 6.554h.819v21.299a.819.819 0 0 0 1.186.733s3.094-1.552 7.826-1.552 7.826 1.552 7.826 1.552a.867.867 0 0 0 .134.051l.019.006a.825.825 0 0 0 .238.029h.005a.758.758 0 0 0 .156-.021l.006-.002.008-.002a.87.87 0 0 0 .166-.062s3.094-1.552 7.826-1.552 7.826 1.552 7.826 1.552a.813.813 0 0 0 1.082-.334.819.819 0 0 0 .104-.399V6.553h.819c.463 0 .819.356.819.819v21.299a.806.806 0 0 1-.819.819H2.459a.806.806 0 0 1-.819-.819V7.372c0-.463.356-.819.819-.819z"/></symbol></defs></svg>